# xmcd
#
# Track frame offsets: 
#        150
#        18186
#        37382
#        52832
#        72191
#        86032
#        102073
#        117782
#        135219
#        152989
#        173536
#
# Disc length: 2562 seconds
#
# Revision: 2
# Processed by: cddbd v1.5.2PL0 Copyright (c) Steve Scherf et al.
# Submitted via: ExactAudioCopy v1.0b1
#
DISCID=810a000b
DTITLE=Crowtown - Crowtown
DYEAR=2001
DGENRE=Pop
TTITLE0=I'm In
TTITLE1=Mary and Me
TTITLE2=About You
TTITLE3=Be Still My Heart
TTITLE4=You are the Woman
TTITLE5=Whenever I Fell In Love
TTITLE6=Now is the Time
TTITLE7=Leaving Ain't the Way to Go
TTITLE8=Take My Fear Away
TTITLE9=Stormy Monday Mornings
TTITLE10=Head Over Heels
EXTD=
EXTT0=
EXTT1=
EXTT2=
EXTT3=
EXTT4=
EXTT5=
EXTT6=
EXTT7=
EXTT8=
EXTT9=
EXTT10=
PLAYORDER=
